<?xml version="1.0" encoding="UTF-8"?>
<!-- GPU symbol generated for the RunCat Neo GPU fork -->
<svg width="3300" height="2200" viewBox="0 0 3300 2200" xmlns="http://www.w3.org/2000/svg">
    <g id="Notes">
        <path id="artboard" fill="#ffffff" stroke="none" d="M 0 0 L 3300 0 L 3300 2200 L 0 2200 Z"/>
        <path id="Path" fill="none" stroke="#000000" stroke-width="0.5" d="M 263 292 L 3036 292"/>
        <text id="WeightScale-Variations" xml:space="preserve" x="261" y="326" font-family="Helvetica" font-size="13" font-weight="700" fill="#000000">Weight/Scale Variations</text>
        <text id="Ultralight" xml:space="preserve" x="531" y="326" font-family="Helvetica" font-size="13" fill="#000000">Ultralight</text>
        <text id="Thin" xml:space="preserve" x="840" y="326" font-family="Helvetica" font-size="13" fill="#000000">Thin</text>
        <text id="Light" xml:space="preserve" x="1136" y="326" font-family="Helvetica" font-size="13" fill="#000000">Light</text>
        <text id="Regular" xml:space="preserve" x="1424" y="326" font-family="Helvetica" font-size="13" fill="#000000">Regular</text>
        <text id="Medium" xml:space="preserve" x="1720" y="326" font-family="Helvetica" font-size="13" fill="#000000">Medium</text>
        <text id="Semibold" xml:space="preserve" x="2013" y="326" font-family="Helvetica" font-size="13" fill="#000000">Semibold</text>
        <text id="Bold" xml:space="preserve" x="2323" y="326" font-family="Helvetica" font-size="13" fill="#000000">Bold</text>
        <text id="Heavy" xml:space="preserve" x="2615" y="326" font-family="Helvetica" font-size="13" fill="#000000">Heavy</text>
        <text id="Black" xml:space="preserve" x="2914" y="326" font-family="Helvetica" font-size="13" fill="#000000">Black</text>
        <path id="path1" fill="none" stroke="#000000" stroke-width="0.5" d="M 263 1903 L 3036 1903"/>
        <g id="Group">
            <path id="path2" fill="#000000" stroke="none" d="M 272.248047 1933.830078 C 276.603516 1933.830078 280.138672 1930.304688 280.138672 1925.949219 C 280.138672 1921.59375 276.603516 1918.068359 272.248047 1918.068359 C 267.902344 1918.068359 264.367188 1921.59375 264.367188 1925.949219 C 264.367188 1930.304688 267.902344 1933.830078 272.248047 1933.830078 Z M 272.248047 1932.345703 C 268.712891 1932.345703 265.861328 1929.484375 265.861328 1925.949219 C 265.861328 1922.414063 268.712891 1919.552734 272.248047 1919.552734 C 275.783203 1919.552734 278.644531 1922.414063 278.644531 1925.949219 C 278.644531 1929.484375 275.783203 1932.345703 272.248047 1932.345703 Z M 272.970703 1928.791016 L 272.970703 1923.097656 C 272.970703 1922.648438 272.677734 1922.345703 272.228516 1922.345703 C 271.798828 1922.345703 271.505859 1922.648438 271.505859 1923.097656 L 271.505859 1928.791016 C 271.505859 1929.230469 271.798828 1929.533203 272.228516 1929.533203 C 272.677734 1929.533203 272.970703 1929.230469 272.970703 1928.791016 Z M 269.40625 1926.671875 L 275.089844 1926.671875 C 275.529297 1926.671875 275.832031 1926.378906 275.832031 1925.949219 C 275.832031 1925.509766 275.529297 1925.207031 275.089844 1925.207031 L 269.40625 1925.207031 C 268.957031 1925.207031 268.654297 1925.509766 268.654297 1925.949219 C 268.654297 1926.378906 268.957031 1926.671875 269.40625 1926.671875 Z"/>
        </g>
        <g id="g1">
            <path id="path3" fill="#000000" stroke="none" d="M 293.214966 1935.910156 C 298.713013 1935.910156 303.175934 1931.447266 303.175934 1925.949219 C 303.175934 1920.451172 298.713013 1915.988281 293.214966 1915.988281 C 287.716949 1915.988281 283.254028 1920.451172 283.254028 1925.949219 C 283.254028 1931.447266 287.716949 1935.910156 293.214966 1935.910156 Z M 293.214966 1934.25 C 288.625153 1934.25 284.914215 1930.539063 284.914215 1925.949219 C 284.914215 1921.359375 288.625153 1917.648438 293.214966 1917.648438 C 297.80481 1917.648438 301.515747 1921.359375 301.515747 1925.949219 C 301.515747 1930.539063 297.80481 1934.25 293.214966 1934.25 Z M 294.025513 1929.630859 L 294.025513 1922.248047 C 294.025513 1921.75 293.683716 1921.408203 293.195435 1921.408203 C 292.716919 1921.408203 292.384888 1921.75 292.384888 1922.248047 L 292.384888 1929.630859 C 292.384888 1930.119141 292.716919 1930.460938 293.195435 1930.460938 C 293.683716 1930.460938 294.025513 1930.128906 294.025513 1929.630859 Z M 289.513794 1926.75 L 296.906372 1926.75 C 297.394653 1926.75 297.73645 1926.427734 297.73645 1925.949219 C 297.73645 1925.460938 297.394653 1925.119141 296.906372 1925.119141 L 289.513794 1925.119141 C 289.015747 1925.119141 288.683716 1925.460938 288.683716 1925.949219 C 288.683716 1926.427734 289.015747 1926.75 289.513794 1926.75 Z"/>
        </g>
        <g id="g2">
            <path id="path4" fill="#000000" stroke="none" d="M 319.894714 1938.664063 C 326.916168 1938.664063 332.619293 1932.970703 332.619293 1925.949219 C 332.619293 1918.927734 326.916168 1913.224609 319.894714 1913.224609 C 312.87323 1913.224609 307.179871 1918.927734 307.179871 1925.949219 C 307.179871 1932.970703 312.87323 1938.664063 319.894714 1938.664063 Z M 319.894714 1936.847656 C 313.869293 1936.847656 308.996246 1931.974609 308.996246 1925.949219 C 308.996246 1919.923828 313.869293 1915.050781 319.894714 1915.050781 C 325.920105 1915.050781 330.793152 1919.923828 330.793152 1925.949219 C 330.793152 1931.974609 325.920105 1936.847656 319.894714 1936.847656 Z M 320.783386 1930.783203 L 320.783386 1921.085938 C 320.783386 1920.539063 320.412292 1920.158203 319.875153 1920.158203 C 319.357605 1920.158203 318.986481 1920.539063 318.986481 1921.085938 L 318.986481 1930.783203 C 318.986481 1931.320313 319.357605 1931.701172 319.875153 1931.701172 C 320.412292 1931.701172 320.783386 1931.330078 320.783386 1930.783203 Z M 315.041199 1926.828125 L 324.738464 1926.828125 C 325.275574 1926.828125 325.656433 1926.466797 325.656433 1925.949219 C 325.656433 1925.402344 325.285339 1925.03125 324.738464 1925.03125 L 315.041199 1925.03125 C 314.494324 1925.03125 314.12323 1925.402344 314.12323 1925.949219 C 314.12323 1926.466797 314.494324 1926.828125 315.041199 1926.828125 Z"/>
        </g>
        <text id="Design-Variations" xml:space="preserve" x="261" y="1957" font-family="Helvetica" font-size="13" font-weight="700" fill="#000000">Design Variations</text>
        <text id="Symbols-are-supported-in" xml:space="preserve" x="261" y="1975" font-family="Helvetica" font-size="13" fill="#000000">Symbols are supported in up to nine weights and three scales.</text>
        <text id="For-optimal-layout-with" xml:space="preserve" x="261" y="1993" font-family="Helvetica" font-size="13" fill="#000000">For optimal layout with text and other symbols, vertically align</text>
        <text id="symbols-with-the-adjacent" xml:space="preserve" x="261" y="2011" font-family="Helvetica" font-size="13" fill="#000000">symbols with the adjacent text.</text>
        <path id="path5" fill="none" stroke="#00aeef" stroke-width="0.5" d="M 776 1919 L 776 1933"/>
        <g id="g3">
            <path id="path6" fill="#000000" stroke="none" d="M 779.310547 1933.15625 C 779.828125 1933.15625 780.082031 1932.960938 780.267578 1932.414063 L 784.378906 1920.910156 L 784.427734 1920.910156 L 788.548828 1932.414063 C 788.734375 1932.960938 788.988281 1933.15625 789.496094 1933.15625 C 790.013672 1933.15625 790.345703 1932.84375 790.345703 1932.355469 C 790.345703 1932.189453 790.316406 1932.033203 790.238281 1931.828125 L 785.658203 1919.630859 C 785.433594 1919.035156 785.033203 1918.732422 784.408203 1918.732422 C 783.802734 1918.732422 783.392578 1919.025391 783.177734 1919.621094 L 778.597656 1931.837891 C 778.519531 1932.042969 778.490234 1932.199219 778.490234 1932.365234 C 778.490234 1932.853516 778.802734 1933.15625 779.310547 1933.15625 Z M 781.351563 1928.966797 L 787.484375 1928.966797 C 787.884766 1928.966797 788.216797 1928.634766 788.216797 1928.234375 C 788.216797 1927.824219 787.884766 1927.501953 787.484375 1927.501953 L 781.351563 1927.501953 C 780.951172 1927.501953 780.619141 1927.824219 780.619141 1928.234375 C 780.619141 1928.634766 780.951172 1928.966797 781.351563 1928.966797 Z"/>
        </g>
        <path id="path7" fill="none" stroke="#00aeef" stroke-width="0.5" d="M 792.835999 1919 L 792.835999 1933"/>
        <text id="Margins" xml:space="preserve" x="774" y="1957" font-family="Helvetica" font-size="13" font-weight="700" fill="#000000">Margins</text>
        <text id="Leading-and-trailing-margins" xml:space="preserve" x="774" y="1975" font-family="Helvetica" font-size="13" fill="#000000">Leading and trailing margins on the left and right side of each symbol</text>
        <text id="can-be-adjusted-by" xml:space="preserve" x="774" y="1993" font-family="Helvetica" font-size="13" fill="#000000">can be adjusted by modifying the x-location of the margin guidelines.</text>
        <text id="Modifications-are-automatically-applied" xml:space="preserve" x="774" y="2011" font-family="Helvetica" font-size="13" fill="#000000">Modifications are automatically applied proportionally to all</text>
        <text id="scales-and-weights" xml:space="preserve" x="774" y="2029" font-family="Helvetica" font-size="13" fill="#000000">scales and weights.</text>
        <g id="g4">
            <path id="path8" fill="#000000" stroke="none" d="M 1291.841797 1935.626953 L 1293.414063 1937.199219 C 1294.273438 1938.078125 1295.279297 1938.019531 1296.1875 1936.994141 L 1308.326172 1923.351563 L 1307.349609 1922.375 L 1295.298828 1935.910156 C 1294.9375 1936.300781 1294.605469 1936.398438 1294.136719 1935.929688 L 1293.101563 1934.904297 C 1292.642578 1934.445313 1292.740234 1934.113281 1293.140625 1933.742188 L 1306.636719 1921.310547 L 1305.660156 1920.34375 L 1292.046875 1932.863281 C 1291.050781 1933.78125 1290.982422 1934.757813 1291.841797 1935.626953 Z M 1300.816406 1916.134766 C 1300.40625 1916.535156 1300.367188 1917.111328 1300.601563 1917.492188 C 1300.826172 1917.853516 1301.294922 1918.097656 1301.919922 1917.941406 C 1303.091797 1917.609375 1304.439453 1917.462891 1305.699219 1918.126953 L 1305.162109 1919.552734 C 1304.839844 1920.353516 1305.015625 1920.929688 1305.503906 1921.4375 L 1307.554688 1923.498047 C 1308.023438 1923.976563 1308.462891 1923.986328 1308.970703 1923.888672 L 1309.859375 1923.742188 L 1310.376953 1924.25 L 1310.337891 1924.699219 C 1310.318359 1925.158203 1310.445313 1925.558594 1310.894531 1925.998047 L 1311.568359 1926.662109 C 1312.027344 1927.121094 1312.671875 1927.160156 1313.130859 1926.701172 L 1315.728516 1924.09375 C 1316.1875 1923.625 1316.158203 1923.019531 1315.689453 1922.560547 L 1315.005859 1921.876953 C 1314.566406 1921.4375 1314.195313 1921.271484 1313.736328 1921.300781 L 1313.267578 1921.349609 L 1312.779297 1920.861328 L 1312.984375 1919.923828 C 1313.111328 1919.376953 1312.935547 1918.927734 1312.408203 1918.400391 L 1310.152344 1916.164063 C 1307.564453 1913.595703 1303.033203 1913.957031 1300.816406 1916.134766 Z M 1302.232422 1916.544922 C 1303.990234 1915.265625 1307.427734 1915.412109 1308.970703 1916.935547 L 1311.431641 1919.376953 C 1311.636719 1919.582031 1311.675781 1919.738281 1311.617188 1920.041016 L 1311.324219 1921.369141 L 1312.671875 1922.707031 L 1313.550781 1922.658203 C 1313.775391 1922.648438 1313.853516 1922.667969 1314.019531 1922.833984 L 1314.527344 1923.332031 L 1312.359375 1925.5 L 1311.861328 1925.001953 C 1311.695313 1924.826172 1311.666016 1924.757813 1311.675781 1924.523438 L 1311.734375 1923.654297 L 1310.396484 1922.306641 L 1309.029297 1922.541016 C 1308.746094 1922.599609 1308.619141 1922.580078 1308.394531 1922.365234 L 1306.607422 1920.587891 C 1306.392578 1920.382813 1306.373047 1920.246094 1306.509766 1919.914063 L 1307.427734 1917.619141 C 1306.207031 1916.349609 1304.019531 1916.115234 1302.310547 1916.701172 C 1302.173828 1916.75 1302.125 1916.623047 1302.232422 1916.544922 Z"/>
        </g>
        <text id="Exporting" xml:space="preserve" x="1287" y="1957" font-family="Helvetica" font-size="13" font-weight="700" fill="#000000">Exporting</text>
        <text id="Symbols-should-be-outlined" xml:space="preserve" x="1287" y="1975" font-family="Helvetica" font-size="13" fill="#000000">Symbols should be outlined when exporting to ensure the</text>
        <text id="design-is-preserved-when" xml:space="preserve" x="1287" y="1993" font-family="Helvetica" font-size="13" fill="#000000">design is preserved when submitting to Xcode.</text>
        <text id="template-version" xml:space="preserve" x="2948" y="1937" font-family="Helvetica" font-size="13" fill="#000000">Template v.7.0</text>
        <text id="Requires-Xcode-26-or" xml:space="preserve" x="2861" y="1955" font-family="Helvetica" font-size="13" fill="#000000">Requires Xcode 26 or greater</text>
        <text id="Generated-from-activitymonitor" xml:space="preserve" x="2852" y="1973" font-family="Helvetica" font-size="13" fill="#000000">Generated from activity.monitor</text>
        <text id="Typeset-at-1000-points" xml:space="preserve" x="2898" y="1991" font-family="Helvetica" font-size="13" fill="#000000">Typeset at 100.0 points</text>
        <text id="Small" xml:space="preserve" x="261" y="730" font-family="Helvetica" font-size="13" fill="#000000">Small</text>
        <text id="text1" xml:space="preserve" x="261" y="1160" font-family="Helvetica" font-size="13" fill="#000000">Medium</text>
        <text id="Large" xml:space="preserve" x="261" y="1590" font-family="Helvetica" font-size="13" fill="#000000">Large</text>
    </g>
    <g id="Guides">
        <g id="H-reference">
            <path id="path9" fill="#27aae1" stroke="none" d="M 339.993652 696 L 342.637756 696 L 368.328094 628.867676 L 369.030304 628.867676 L 369.030304 625.541016 L 367.122589 625.541016 Z M 350.688507 671.520142 L 385.981506 671.520142 L 385.231506 669.271484 L 351.438507 669.271484 Z M 394.119598 696 L 396.763702 696 L 369.638214 625.541016 L 368.432587 625.541016 L 368.432587 628.867676 Z"/>
        </g>
        <path id="Baseline-S" fill="none" stroke="#27aae1" stroke-width="0.5" d="M 263 696 L 3036 696"/>
        <path id="Capline-S" fill="none" stroke="#27aae1" stroke-width="0.5" d="M 263 625.541016 L 3036 625.541016"/>
        <g id="g5">
            <path id="path10" fill="#27aae1" stroke="none" d="M 339.993652 1126 L 342.637756 1126 L 368.328094 1058.867676 L 369.030304 1058.867676 L 369.030304 1055.541016 L 367.122589 1055.541016 Z M 350.688507 1101.520142 L 385.981506 1101.520142 L 385.231506 1099.271484 L 351.438507 1099.271484 Z M 394.119598 1126 L 396.763702 1126 L 369.638214 1055.541016 L 368.432587 1055.541016 L 368.432587 1058.867676 Z"/>
        </g>
        <path id="Baseline-M" fill="none" stroke="#27aae1" stroke-width="0.5" d="M 263 1126 L 3036 1126"/>
        <path id="Capline-M" fill="none" stroke="#27aae1" stroke-width="0.5" d="M 263 1055.540039 L 3036 1055.540039"/>
        <g id="g6">
            <path id="path11" fill="#27aae1" stroke="none" d="M 339.993652 1556 L 342.637756 1556 L 368.328094 1488.867676 L 369.030304 1488.867676 L 369.030304 1485.541016 L 367.122589 1485.541016 Z M 350.688507 1531.52002 L 385.981506 1531.52002 L 385.231506 1529.271484 L 351.438507 1529.271484 Z M 394.119598 1556 L 396.763702 1556 L 369.638214 1485.541016 L 368.432587 1485.541016 L 368.432587 1488.867676 Z"/>
        </g>
        <path id="Baseline-L" fill="none" stroke="#27aae1" stroke-width="0.5" d="M 263 1556 L 3036 1556"/>
        <path id="Capline-L" fill="none" stroke="#27aae1" stroke-width="0.5" d="M 263 1485.540039 L 3036 1485.540039"/>
        <path id="right-margin-Black-S" fill="none" stroke="#00aeef" stroke-width="0.5" d="M 2980.400 600.784912 L 2980.400 720.120972"/>
        <path id="left-margin-Black-S" fill="none" stroke="#00aeef" stroke-width="0.5" d="M 2886.400 600.784912 L 2886.400 720.120972"/>
        <path id="right-margin-Regular-S" fill="none" stroke="#00aeef" stroke-width="0.5" d="M 1493.850 600.784912 L 1493.850 720.120972"/>
        <path id="left-margin-Regular-S" fill="none" stroke="#00aeef" stroke-width="0.5" d="M 1405.850 600.784912 L 1405.850 720.120972"/>
        <path id="right-margin-Ultralight-S" fill="none" stroke="#00aeef" stroke-width="0.5" d="M 601.710 600.784912 L 601.710 720.120972"/>
        <path id="left-margin-Ultralight-S" fill="none" stroke="#00aeef" stroke-width="0.5" d="M 517.710 600.784912 L 517.710 720.120972"/>
    </g>
    <g id="Symbols">
        <g id="Black-S">
            <path id="black-s-0" fill="#000000" stroke="none" d="M 2894.400 627.500 L 2972.400 627.500 C 2976.818 627.500 2980.400 631.082 2980.400 635.500 L 2980.400 675.500 C 2980.400 679.918 2976.818 683.500 2972.400 683.500 L 2894.400 683.500 C 2889.982 683.500 2886.400 679.918 2886.400 675.500 L 2886.400 635.500 C 2886.400 631.082 2889.982 627.500 2894.400 627.500 Z M 2897.900 638.000 C 2897.348 638.000 2896.900 638.448 2896.900 639.000 L 2896.900 672.000 C 2896.900 672.552 2897.348 673.000 2897.900 673.000 L 2968.900 673.000 C 2969.452 673.000 2969.900 672.552 2969.900 672.000 L 2969.900 639.000 C 2969.900 638.448 2969.452 638.000 2968.900 638.000 L 2897.900 638.000 Z"/>
            <path id="black-s-1" fill="#000000" stroke="none" d="M 2918.360 640.000 C 2926.920 640.000 2933.860 646.940 2933.860 655.500 C 2933.860 664.060 2926.920 671.000 2918.360 671.000 C 2909.800 671.000 2902.860 664.060 2902.860 655.500 C 2902.860 646.940 2909.800 640.000 2918.360 640.000 Z M 2918.360 650.500 C 2915.599 650.500 2913.360 652.739 2913.360 655.500 C 2913.360 658.261 2915.599 660.500 2918.360 660.500 C 2921.121 660.500 2923.360 658.261 2923.360 655.500 C 2923.360 652.739 2921.121 650.500 2918.360 650.500 Z"/>
            <path id="black-s-2" fill="#000000" stroke="none" d="M 2949.080 648.500 L 2959.080 648.500 C 2960.185 648.500 2961.080 649.395 2961.080 650.500 L 2961.080 660.500 C 2961.080 661.605 2960.185 662.500 2959.080 662.500 L 2949.080 662.500 C 2947.975 662.500 2947.080 661.605 2947.080 660.500 L 2947.080 650.500 C 2947.080 649.395 2947.975 648.500 2949.080 648.500 Z"/>
            <path id="black-s-3" fill="#000000" stroke="none" d="M 2902.600 682.500 L 2907.800 682.500 C 2908.352 682.500 2908.800 682.948 2908.800 683.500 L 2908.800 693.000 C 2908.800 693.552 2908.352 694.000 2907.800 694.000 L 2902.600 694.000 C 2902.048 694.000 2901.600 693.552 2901.600 693.000 L 2901.600 683.500 C 2901.600 682.948 2902.048 682.500 2902.600 682.500 Z"/>
            <path id="black-s-4" fill="#000000" stroke="none" d="M 2921.400 682.500 L 2926.600 682.500 C 2927.152 682.500 2927.600 682.948 2927.600 683.500 L 2927.600 693.000 C 2927.600 693.552 2927.152 694.000 2926.600 694.000 L 2921.400 694.000 C 2920.848 694.000 2920.400 693.552 2920.400 693.000 L 2920.400 683.500 C 2920.400 682.948 2920.848 682.500 2921.400 682.500 Z"/>
            <path id="black-s-5" fill="#000000" stroke="none" d="M 2940.200 682.500 L 2945.400 682.500 C 2945.952 682.500 2946.400 682.948 2946.400 683.500 L 2946.400 693.000 C 2946.400 693.552 2945.952 694.000 2945.400 694.000 L 2940.200 694.000 C 2939.648 694.000 2939.200 693.552 2939.200 693.000 L 2939.200 683.500 C 2939.200 682.948 2939.648 682.500 2940.200 682.500 Z"/>
            <path id="black-s-6" fill="#000000" stroke="none" d="M 2959.000 682.500 L 2964.200 682.500 C 2964.752 682.500 2965.200 682.948 2965.200 683.500 L 2965.200 693.000 C 2965.200 693.552 2964.752 694.000 2964.200 694.000 L 2959.000 694.000 C 2958.448 694.000 2958.000 693.552 2958.000 693.000 L 2958.000 683.500 C 2958.000 682.948 2958.448 682.500 2959.000 682.500 Z"/>
        </g>
        <g id="Regular-S">
            <path id="regular-s-0" fill="#000000" stroke="none" d="M 1413.850 627.500 L 1485.850 627.500 C 1490.268 627.500 1493.850 631.082 1493.850 635.500 L 1493.850 675.500 C 1493.850 679.918 1490.268 683.500 1485.850 683.500 L 1413.850 683.500 C 1409.432 683.500 1405.850 679.918 1405.850 675.500 L 1405.850 635.500 C 1405.850 631.082 1409.432 627.500 1413.850 627.500 Z M 1413.850 633.500 C 1412.745 633.500 1411.850 634.395 1411.850 635.500 L 1411.850 675.500 C 1411.850 676.605 1412.745 677.500 1413.850 677.500 L 1485.850 677.500 C 1486.955 677.500 1487.850 676.605 1487.850 675.500 L 1487.850 635.500 C 1487.850 634.395 1486.955 633.500 1485.850 633.500 L 1413.850 633.500 Z"/>
            <path id="regular-s-1" fill="#000000" stroke="none" d="M 1435.770 640.500 C 1444.054 640.500 1450.770 647.216 1450.770 655.500 C 1450.770 663.784 1444.054 670.500 1435.770 670.500 C 1427.486 670.500 1420.770 663.784 1420.770 655.500 C 1420.770 647.216 1427.486 640.500 1435.770 640.500 Z M 1435.770 646.500 C 1430.799 646.500 1426.770 650.529 1426.770 655.500 C 1426.770 660.471 1430.799 664.500 1435.770 664.500 C 1440.741 664.500 1444.770 660.471 1444.770 655.500 C 1444.770 650.529 1440.741 646.500 1435.770 646.500 Z"/>
            <path id="regular-s-2" fill="#000000" stroke="none" d="M 1465.210 649.500 L 1473.210 649.500 C 1474.315 649.500 1475.210 650.395 1475.210 651.500 L 1475.210 659.500 C 1475.210 660.605 1474.315 661.500 1473.210 661.500 L 1465.210 661.500 C 1464.105 661.500 1463.210 660.605 1463.210 659.500 L 1463.210 651.500 C 1463.210 650.395 1464.105 649.500 1465.210 649.500 Z"/>
            <path id="regular-s-3" fill="#000000" stroke="none" d="M 1422.150 682.500 L 1424.750 682.500 C 1425.302 682.500 1425.750 682.948 1425.750 683.500 L 1425.750 693.000 C 1425.750 693.552 1425.302 694.000 1424.750 694.000 L 1422.150 694.000 C 1421.598 694.000 1421.150 693.552 1421.150 693.000 L 1421.150 683.500 C 1421.150 682.948 1421.598 682.500 1422.150 682.500 Z"/>
            <path id="regular-s-4" fill="#000000" stroke="none" d="M 1439.750 682.500 L 1442.350 682.500 C 1442.902 682.500 1443.350 682.948 1443.350 683.500 L 1443.350 693.000 C 1443.350 693.552 1442.902 694.000 1442.350 694.000 L 1439.750 694.000 C 1439.198 694.000 1438.750 693.552 1438.750 693.000 L 1438.750 683.500 C 1438.750 682.948 1439.198 682.500 1439.750 682.500 Z"/>
            <path id="regular-s-5" fill="#000000" stroke="none" d="M 1457.350 682.500 L 1459.950 682.500 C 1460.502 682.500 1460.950 682.948 1460.950 683.500 L 1460.950 693.000 C 1460.950 693.552 1460.502 694.000 1459.950 694.000 L 1457.350 694.000 C 1456.798 694.000 1456.350 693.552 1456.350 693.000 L 1456.350 683.500 C 1456.350 682.948 1456.798 682.500 1457.350 682.500 Z"/>
            <path id="regular-s-6" fill="#000000" stroke="none" d="M 1474.950 682.500 L 1477.550 682.500 C 1478.102 682.500 1478.550 682.948 1478.550 683.500 L 1478.550 693.000 C 1478.550 693.552 1478.102 694.000 1477.550 694.000 L 1474.950 694.000 C 1474.398 694.000 1473.950 693.552 1473.950 693.000 L 1473.950 683.500 C 1473.950 682.948 1474.398 682.500 1474.950 682.500 Z"/>
        </g>
        <g id="Ultralight-S">
            <path id="ultralight-s-0" fill="#000000" stroke="none" d="M 525.710 627.500 L 593.710 627.500 C 598.128 627.500 601.710 631.082 601.710 635.500 L 601.710 675.500 C 601.710 679.918 598.128 683.500 593.710 683.500 L 525.710 683.500 C 521.292 683.500 517.710 679.918 517.710 675.500 L 517.710 635.500 C 517.710 631.082 521.292 627.500 525.710 627.500 Z M 525.710 630.300 C 522.838 630.300 520.510 632.628 520.510 635.500 L 520.510 675.500 C 520.510 678.372 522.838 680.700 525.710 680.700 L 593.710 680.700 C 596.582 680.700 598.910 678.372 598.910 675.500 L 598.910 635.500 C 598.910 632.628 596.582 630.300 593.710 630.300 L 525.710 630.300 Z"/>
            <path id="ultralight-s-1" fill="#000000" stroke="none" d="M 546.270 641.000 C 554.278 641.000 560.770 647.492 560.770 655.500 C 560.770 663.508 554.278 670.000 546.270 670.000 C 538.262 670.000 531.770 663.508 531.770 655.500 C 531.770 647.492 538.262 641.000 546.270 641.000 Z M 546.270 643.800 C 539.808 643.800 534.570 649.038 534.570 655.500 C 534.570 661.962 539.808 667.200 546.270 667.200 C 552.732 667.200 557.970 661.962 557.970 655.500 C 557.970 649.038 552.732 643.800 546.270 643.800 Z"/>
            <path id="ultralight-s-2" fill="#000000" stroke="none" d="M 575.190 650.500 L 581.190 650.500 C 582.295 650.500 583.190 651.395 583.190 652.500 L 583.190 658.500 C 583.190 659.605 582.295 660.500 581.190 660.500 L 575.190 660.500 C 574.085 660.500 573.190 659.605 573.190 658.500 L 573.190 652.500 C 573.190 651.395 574.085 650.500 575.190 650.500 Z"/>
            <path id="ultralight-s-3" fill="#000000" stroke="none" d="M 534.210 682.500 L 534.810 682.500 C 535.362 682.500 535.810 682.948 535.810 683.500 L 535.810 693.000 C 535.810 693.552 535.362 694.000 534.810 694.000 L 534.210 694.000 C 533.658 694.000 533.210 693.552 533.210 693.000 L 533.210 683.500 C 533.210 682.948 533.658 682.500 534.210 682.500 Z"/>
            <path id="ultralight-s-4" fill="#000000" stroke="none" d="M 551.010 682.500 L 551.610 682.500 C 552.162 682.500 552.610 682.948 552.610 683.500 L 552.610 693.000 C 552.610 693.552 552.162 694.000 551.610 694.000 L 551.010 694.000 C 550.458 694.000 550.010 693.552 550.010 693.000 L 550.010 683.500 C 550.010 682.948 550.458 682.500 551.010 682.500 Z"/>
            <path id="ultralight-s-5" fill="#000000" stroke="none" d="M 567.810 682.500 L 568.410 682.500 C 568.962 682.500 569.410 682.948 569.410 683.500 L 569.410 693.000 C 569.410 693.552 568.962 694.000 568.410 694.000 L 567.810 694.000 C 567.258 694.000 566.810 693.552 566.810 693.000 L 566.810 683.500 C 566.810 682.948 567.258 682.500 567.810 682.500 Z"/>
            <path id="ultralight-s-6" fill="#000000" stroke="none" d="M 584.610 682.500 L 585.210 682.500 C 585.762 682.500 586.210 682.948 586.210 683.500 L 586.210 693.000 C 586.210 693.552 585.762 694.000 585.210 694.000 L 584.610 694.000 C 584.058 694.000 583.610 693.552 583.610 693.000 L 583.610 683.500 C 583.610 682.948 584.058 682.500 584.610 682.500 Z"/>
        </g>
    </g>
</svg>
